<?xml version="1.0" standalone="no"?>
<!DOCTYPE svg PUBLIC "-//W3C//DTD SVG 20010904//EN"
 "http://www.w3.org/TR/2001/REC-SVG-20010904/DTD/svg10.dtd">
<svg version="1.0" xmlns="http://www.w3.org/2000/svg"
 width="122.000000pt" height="102.000000pt" viewBox="0 0 122.000000 102.000000"
 preserveAspectRatio="xMidYMid meet">

<g transform="translate(0.000000,102.000000) scale(0.100000,-0.100000)"
fill="#000000" stroke="none">
<path d="M480 915 c-80 -26 -171 -94 -217 -163 -59 -88 -76 -153 -71 -267 3
-81 8 -101 38 -161 44 -87 111 -154 198 -196 64 -31 72 -33 182 -33 111 0 117
1 184 35 88 44 156 112 198 197 32 65 33 73 33 183 0 111 -1 117 -35 184 -45
90 -108 154 -195 197 -63 31 -78 34 -169 36 -67 2 -116 -2 -146 -12z m271 -97
c112 -52 188 -163 197 -290 l5 -68 -47 0 -46 0 0 41 c0 26 -9 56 -22 78 -15
24 -23 52 -23 86 0 45 -2 50 -24 53 -13 2 -37 -6 -53 -18 -44 -32 -160 -34
-208 -2 -19 13 -45 22 -60 20 -23 -3 -25 -7 -25 -58 -1 -39 -7 -65 -23 -90
-12 -20 -22 -51 -22 -72 0 -33 -4 -38 -27 -44 -48 -10 -49 -12 -6 -13 34 -1
45 -6 63 -31 13 -18 40 -36 69 -47 l49 -17 -23 -18 c-35 -27 -65 -22 -106 18
-21 20 -42 35 -47 33 -17 -7 62 -114 86 -117 17 -3 22 -10 22 -33 0 -16 -3
-29 -8 -29 -25 0 -136 100 -158 142 -34 64 -35 78 -11 89 l22 10 -22 -5 c-24
-4 -32 9 -10 17 6 3 4 6 -7 6 -17 1 -18 8 -14 69 11 147 101 262 243 309 61
20 170 11 236 -19z m179 -411 c0 -13 -13 -43 -28 -68 -31 -48 -114 -128 -118
-113 -1 5 -5 21 -8 36 -3 14 -17 40 -31 56 l-25 29 44 17 c23 9 52 28 64 41
17 19 32 25 62 25 35 0 40 -3 40 -23z m-280 -197 c0 -33 -3 -40 -20 -40 -17 0
-20 7 -20 40 0 33 3 40 20 40 17 0 20 -7 20 -40z m-85 -10 c3 -5 4 -14 0 -20
-8 -13 -35 -1 -35 16 0 16 26 19 35 4z m169 1 c3 -5 -3 -11 -14 -14 -13 -3
-20 0 -20 9 0 15 26 19 34 5z"/>
<path d="M323 463 c9 -2 25 -2 35 0 9 3 1 5 -18 5 -19 0 -27 -2 -17 -5z"/>
</g>
</svg>
