<?xml version="1.0" standalone="no"?>
<!DOCTYPE svg PUBLIC "-//W3C//DTD SVG 20010904//EN"
 "http://www.w3.org/TR/2001/REC-SVG-20010904/DTD/svg10.dtd">
<svg version="1.0" xmlns="http://www.w3.org/2000/svg"
 width="122.000000pt" height="102.000000pt" viewBox="0 0 122.000000 102.000000"
 preserveAspectRatio="xMidYMid meet">

<g transform="translate(0.000000,102.000000) scale(0.100000,-0.100000)"
fill="#000000" stroke="none">
<path d="M339 863 c-45 -23 -59 -37 -81 -82 -28 -55 -28 -55 -28 -272 l0 -217
28 -53 c23 -45 37 -59 81 -81 55 -28 55 -28 272 -28 l217 0 53 28 c43 22 59
38 81 81 l28 53 0 217 c0 217 0 217 -27 272 -23 44 -37 58 -82 81 l-53 28
-217 0 c-217 0 -217 0 -272 -27z m555 -69 c9 -8 16 -20 16 -26 0 -15 -30 -48
-43 -48 -15 0 -47 31 -47 46 0 17 28 44 45 44 7 0 21 -7 29 -16z m-183 -102
c45 -23 59 -37 82 -81 36 -73 36 -131 -1 -202 -22 -43 -38 -59 -81 -81 -71
-37 -129 -37 -202 0 -44 22 -58 36 -81 81 -37 71 -37 129 0 202 22 45 36 59
81 82 73 36 131 36 202 -1z"/>
<path d="M551 622 c-37 -20 -71 -73 -71 -110 0 -62 70 -132 131 -132 55 0 129
74 129 129 0 37 -40 99 -76 116 -42 20 -72 19 -113 -3z"/>
</g>
</svg>
