<?xml version="1.0" standalone="no"?>
<!DOCTYPE svg PUBLIC "-//W3C//DTD SVG 20010904//EN"
 "http://www.w3.org/TR/2001/REC-SVG-20010904/DTD/svg10.dtd">
<svg version="1.0" xmlns="http://www.w3.org/2000/svg"
 width="122.000000pt" height="102.000000pt" viewBox="0 0 122.000000 102.000000"
 preserveAspectRatio="xMidYMid meet">

<g transform="translate(0.000000,102.000000) scale(0.100000,-0.100000)"
fill="#000000" stroke="none">
<path d="M255 865 l-25 -24 0 -331 0 -331 25 -24 24 -25 331 0 331 0 24 25 25
24 0 331 0 331 -25 24 -24 25 -331 0 -331 0 -24 -25z m213 -127 c19 -19 15
-66 -7 -78 -32 -17 -60 -11 -77 15 -15 23 -15 27 0 50 18 27 63 34 84 13z m12
-293 l0 -145 -50 0 -50 0 0 145 0 145 50 0 50 0 0 -145z m203 133 c4 -10 7
-10 18 0 7 6 34 12 59 12 37 0 51 -5 71 -26 22 -24 24 -35 27 -145 l4 -119
-51 0 -51 0 0 89 c0 105 -5 121 -34 121 -39 0 -46 -19 -46 -117 l0 -93 -55 0
-55 0 0 145 0 145 54 0 c34 0 56 -5 59 -12z"/>
</g>
</svg>
